<svg width="2482" height="1135" viewBox="0 0 2482 1135" fill="none" xmlns="http://www.w3.org/2000/svg">
<path d="M361.494 769.242C352.8 725.81 357.733 680.752 375.617 640.229L459.134 451L604.134 175.5L706.921 32.332C716.512 18.9739 737.228 22.2541 742.223 37.9216L805.958 237.854C811.388 254.885 814.672 272.526 815.735 290.37L830.634 540.5L830.634 675.422C830.634 693.403 828.378 711.313 823.92 728.733L806.467 796.92C794.281 844.532 766.151 886.531 726.762 915.923L707.14 930.565C580.558 1025.02 398.743 955.319 367.742 800.452L361.494 769.242Z" fill="#62A557"/>
<path d="M722.634 21.5002H732.634L699.134 231.5L638.634 498L592.634 691L567.072 779.5L532.134 896.5L439.634 1134L423.634 1122L519.259 866.625L567.072 738.938L598.634 632.5L648.134 417L685.634 231.5L722.634 21.5002Z" fill="#398132"/>
<path d="M1197.35 640.35C1200.38 640.35 1202.83 641.283 1204.7 643.15C1206.8 645.017 1207.85 647.467 1207.85 650.5C1207.85 653.533 1206.8 656.1 1204.7 658.2C1202.83 660.067 1200.38 661 1197.35 661H1072.4C1069.37 661 1066.8 660.067 1064.7 658.2C1062.83 656.1 1061.9 653.533 1061.9 650.5V426.5C1061.9 423.467 1062.95 421.017 1065.05 419.15C1067.15 417.05 1069.83 416 1073.1 416C1076.13 416 1078.7 417.05 1080.8 419.15C1082.9 421.017 1083.95 423.467 1083.95 426.5V640.35H1197.35ZM1263.23 650.5C1263.23 653.533 1262.18 656.1 1260.08 658.2C1258.21 660.067 1255.76 661 1252.73 661C1249.7 661 1247.13 660.067 1245.03 658.2C1243.16 656.1 1242.23 653.533 1242.23 650.5V489.5C1242.23 486.467 1243.16 484.017 1245.03 482.15C1247.13 480.05 1249.7 479 1252.73 479C1255.76 479 1258.21 480.05 1260.08 482.15C1262.18 484.017 1263.23 486.467 1263.23 489.5V650.5ZM1252.73 455.55C1248.06 455.55 1244.45 454.5 1241.88 452.4C1239.31 450.067 1238.03 446.8 1238.03 442.6V439.1C1238.03 434.9 1239.31 431.75 1241.88 429.65C1244.68 427.317 1248.41 426.15 1253.08 426.15C1262.41 426.15 1267.08 430.467 1267.08 439.1V442.6C1267.08 446.8 1265.8 450.067 1263.23 452.4C1260.9 454.5 1257.4 455.55 1252.73 455.55ZM1468.98 482.15C1472.02 482.15 1474.47 483.2 1476.33 485.3C1478.43 487.167 1479.48 489.733 1479.48 493V644.55C1479.48 662.75 1475.63 678.267 1467.93 691.1C1460.47 704.167 1450.08 714.083 1436.78 720.85C1423.72 727.617 1408.67 731 1391.63 731C1383.47 731 1374.83 729.95 1365.73 727.85C1356.87 725.75 1349.17 723.067 1342.63 719.8C1336.33 716.533 1332.72 713.15 1331.78 709.65C1330.15 708.017 1329.33 706.15 1329.33 704.05C1329.33 701.717 1330.38 699.85 1332.48 698.45C1333.42 697.75 1334.58 697.4 1335.98 697.4C1337.38 697.4 1340.07 698.217 1344.03 699.85L1351.38 703C1365.85 708.6 1379.38 711.4 1391.98 711.4C1412.75 711.4 1428.97 705.45 1440.63 693.55C1452.53 681.883 1458.48 666.017 1458.48 645.95V624.25C1452.65 636.85 1443.43 646.767 1430.83 654C1418.23 661 1405.05 664.5 1391.28 664.5C1375.18 664.5 1360.6 660.533 1347.53 652.6C1334.7 644.433 1324.55 633.233 1317.08 619C1309.62 604.767 1305.88 588.783 1305.88 571.05C1305.88 553.55 1309.62 537.683 1317.08 523.45C1324.55 509.217 1334.7 498.133 1347.53 490.2C1360.6 482.033 1375.07 477.95 1390.93 477.95C1405.63 477.95 1419.05 481.683 1431.18 489.15C1443.55 496.383 1452.65 505.133 1458.48 515.4V493C1458.48 489.967 1459.42 487.4 1461.28 485.3C1463.38 483.2 1465.95 482.15 1468.98 482.15ZM1393.03 644.9C1405.87 644.9 1417.3 641.867 1427.33 635.8C1437.6 629.5 1445.53 620.75 1451.13 609.55C1456.97 598.117 1459.88 585.283 1459.88 571.05C1459.88 556.817 1456.97 544.1 1451.13 532.9C1445.53 521.7 1437.6 513.067 1427.33 507C1417.3 500.7 1405.87 497.55 1393.03 497.55C1380.43 497.55 1369 500.817 1358.73 507.35C1348.7 513.65 1340.77 522.4 1334.93 533.6C1329.33 544.8 1326.53 557.283 1326.53 571.05C1326.53 585.05 1329.33 597.65 1334.93 608.85C1340.77 620.05 1348.7 628.917 1358.73 635.45C1369 641.75 1380.43 644.9 1393.03 644.9ZM1616.37 480.75C1637.37 480.75 1653.01 487.4 1663.27 500.7C1673.54 513.767 1678.67 530.683 1678.67 551.45V650.5C1678.67 653.533 1677.62 656.1 1675.52 658.2C1673.66 660.067 1671.21 661 1668.17 661C1665.14 661 1662.57 660.067 1660.47 658.2C1658.61 656.1 1657.67 653.533 1657.67 650.5V551.45C1657.67 536.283 1654.06 524.033 1646.82 514.7C1639.59 505.133 1628.27 500.35 1612.87 500.35C1603.07 500.35 1593.74 502.683 1584.87 507.35C1576.24 512.017 1569.24 518.317 1563.87 526.25C1558.51 533.95 1555.82 542.35 1555.82 551.45V650.5C1555.82 653.533 1554.77 656.1 1552.67 658.2C1550.81 660.067 1548.36 661 1545.32 661C1542.29 661 1539.72 660.067 1537.62 658.2C1535.76 656.1 1534.82 653.533 1534.82 650.5V412.5C1534.82 409.467 1535.76 407.017 1537.62 405.15C1539.72 403.05 1542.29 402 1545.32 402C1548.36 402 1550.81 403.05 1552.67 405.15C1554.77 407.017 1555.82 409.467 1555.82 412.5V515.05C1562.12 505.017 1570.87 496.85 1582.07 490.55C1593.27 484.017 1604.71 480.75 1616.37 480.75ZM1768.75 502.45V619.7C1768.75 628.567 1770.38 634.633 1773.65 637.9C1776.92 640.933 1781.23 642.45 1786.6 642.45C1788 642.45 1789.75 642.217 1791.85 641.75C1793.95 641.05 1795.58 640.7 1796.75 640.7C1798.85 640.7 1800.6 641.633 1802 643.5C1803.63 645.133 1804.45 647.117 1804.45 649.45C1804.45 652.717 1802.58 655.517 1798.85 657.85C1795.12 659.95 1790.68 661 1785.55 661C1779.25 661 1773.65 660.417 1768.75 659.25C1763.85 658.083 1759.07 654.583 1754.4 648.75C1749.97 642.917 1747.75 633.583 1747.75 620.75V502.45H1722.2C1719.4 502.45 1716.95 501.517 1714.85 499.65C1712.98 497.783 1712.05 495.45 1712.05 492.65C1712.05 489.85 1712.98 487.517 1714.85 485.65C1716.95 483.783 1719.4 482.85 1722.2 482.85H1747.75V444C1747.75 440.967 1748.68 438.517 1750.55 436.65C1752.65 434.55 1755.22 433.5 1758.25 433.5C1761.28 433.5 1763.73 434.55 1765.6 436.65C1767.7 438.517 1768.75 440.967 1768.75 444V482.85H1803.75C1806.32 482.85 1808.53 483.9 1810.4 486C1812.5 488.1 1813.55 490.433 1813.55 493C1813.55 495.8 1812.62 498.133 1810.75 500C1808.88 501.633 1806.55 502.45 1803.75 502.45H1768.75ZM1875.45 650.5C1875.45 653.533 1874.4 656.1 1872.3 658.2C1870.44 660.067 1867.99 661 1864.95 661C1861.92 661 1859.35 660.067 1857.25 658.2C1855.39 656.1 1854.45 653.533 1854.45 650.5V412.5C1854.45 409.467 1855.39 407.017 1857.25 405.15C1859.35 403.05 1861.92 402 1864.95 402C1867.99 402 1870.44 403.05 1872.3 405.15C1874.4 407.017 1875.45 409.467 1875.45 412.5V650.5ZM1953.32 650.5C1953.32 653.533 1952.27 656.1 1950.17 658.2C1948.3 660.067 1945.85 661 1942.82 661C1939.78 661 1937.22 660.067 1935.12 658.2C1933.25 656.1 1932.32 653.533 1932.32 650.5V489.5C1932.32 486.467 1933.25 484.017 1935.12 482.15C1937.22 480.05 1939.78 479 1942.82 479C1945.85 479 1948.3 480.05 1950.17 482.15C1952.27 484.017 1953.32 486.467 1953.32 489.5V650.5ZM1942.82 455.55C1938.15 455.55 1934.53 454.5 1931.97 452.4C1929.4 450.067 1928.12 446.8 1928.12 442.6V439.1C1928.12 434.9 1929.4 431.75 1931.97 429.65C1934.77 427.317 1938.5 426.15 1943.17 426.15C1952.5 426.15 1957.17 430.467 1957.17 439.1V442.6C1957.17 446.8 1955.88 450.067 1953.32 452.4C1950.98 454.5 1947.48 455.55 1942.82 455.55ZM2142.97 478.65C2145.3 478.65 2147.52 479.467 2149.62 481.1C2151.72 482.733 2152.77 484.833 2152.77 487.4C2152.77 489.5 2152.3 491.483 2151.37 493.35L2082.77 654.35C2081.84 656.217 2080.44 657.85 2078.57 659.25C2076.94 660.417 2075.19 661 2073.32 661C2070.99 661.233 2068.89 660.767 2067.02 659.6C2065.15 658.433 2063.75 656.683 2062.82 654.35L1993.87 493.35C1993.87 492.883 1993.64 492.183 1993.17 491.25C1992.94 490.317 1992.82 489.383 1992.82 488.45C1992.82 485.65 1993.75 483.317 1995.62 481.45C1997.49 479.35 2000.17 478.3 2003.67 478.3C2005.77 478.3 2007.64 479 2009.27 480.4C2011.14 481.567 2012.54 483.2 2013.47 485.3L2072.97 627.05L2132.82 485.3C2133.75 483.2 2135.04 481.567 2136.67 480.4C2138.54 479 2140.64 478.417 2142.97 478.65ZM2342.62 561.25C2342.62 564.05 2341.57 566.5 2339.47 568.6C2337.37 570.467 2334.92 571.4 2332.12 571.4H2199.82C2199.82 585.4 2202.62 598 2208.22 609.2C2214.05 620.167 2222.22 628.917 2232.72 635.45C2243.45 641.75 2256.05 644.9 2270.52 644.9C2281.72 644.9 2291.75 642.567 2300.62 637.9C2309.48 633.233 2316.6 627.283 2321.97 620.05C2324.53 617.95 2326.98 616.9 2329.32 616.9C2331.65 616.9 2333.75 617.833 2335.62 619.7C2337.48 621.567 2338.42 623.667 2338.42 626C2338.42 628.567 2337.25 631.017 2334.92 633.35C2327.45 642.45 2318 649.917 2306.57 655.75C2295.37 661.583 2283.47 664.5 2270.87 664.5C2252.9 664.5 2237.03 660.65 2223.27 652.95C2209.5 645.25 2198.77 634.517 2191.07 620.75C2183.37 606.75 2179.52 590.65 2179.52 572.45C2179.52 553.317 2183.25 536.633 2190.72 522.4C2198.42 507.933 2208.57 496.967 2221.17 489.5C2233.77 481.8 2247.18 477.95 2261.42 477.95C2275.42 477.95 2288.48 481.217 2300.62 487.75C2312.98 494.283 2323.02 503.85 2330.72 516.45C2338.42 529.05 2342.38 543.983 2342.62 561.25ZM2261.42 498.25C2247.88 498.25 2235.28 502.917 2223.62 512.25C2212.18 521.583 2204.83 535 2201.57 552.5H2320.92V549.7C2319.75 539.2 2316.25 530.1 2310.42 522.4C2304.58 514.467 2297.23 508.517 2288.37 504.55C2279.73 500.35 2270.75 498.25 2261.42 498.25Z" fill="black"/>
</svg>
